<svg xmlns="http://www.w3.org/2000/svg" xmlns:xlink="http://www.w3.org/1999/xlink" version="1.1" x="0px" y="0px" viewBox="0 0 512 640" style="enable-background:new 0 0 512 512;" xml:space="preserve"><g><g><g><g><path d="M368.24,122.942v282.82c0,2.321-1.834,4.16-4.162,4.16h-217.07c-2.328,0-4.229-1.839-4.229-4.16v-282.82      c0-2.329,1.901-4.161,4.229-4.161h217.07C366.406,118.781,368.24,120.613,368.24,122.942z M359.917,401.594V127.109H151.169      v274.484H359.917z"/><path d="M380.517,82.592v370.926c0,7.406-3.038,14.179-7.978,19.049c-4.864,4.864-11.636,7.971-19.111,7.971H157.662      c-7.409,0-14.25-3.106-19.189-7.971c-4.867-4.87-7.971-11.643-7.971-19.049V82.662c0-7.406,3.104-14.248,7.971-19.118      c4.939-4.939,11.711-7.971,19.189-7.971h195.766c7.476,0,14.247,3.031,19.111,7.971      C377.479,68.414,380.517,75.187,380.517,82.592z M372.188,453.518V82.592c0-5.146-2.115-9.803-5.505-13.191      c-3.382-3.383-8.04-5.505-13.255-5.505H157.662c-5.149,0-9.876,2.122-13.266,5.505c-3.454,3.457-5.5,8.115-5.5,13.262v370.855      c0,5.154,2.046,9.804,5.5,13.193c3.39,3.383,8.116,5.504,13.266,5.504h195.766c5.215,0,9.873-2.121,13.255-5.504      C370.072,463.321,372.188,458.672,372.188,453.518z"/><path d="M425.522,347.487c2.467,2.542,4.018,6.069,4.018,9.948c0,3.878-1.62,7.481-4.162,10.016l-0.137,0.146      c-2.611,2.535-6.139,4.092-9.948,4.092c-3.955,0-7.482-1.626-10.086-4.237l-0.145-0.137c-2.467-2.542-4.018-6.069-4.018-9.879      c0-3.948,1.62-7.552,4.162-10.086l0.137-0.145c2.611-2.535,6.07-4.093,9.949-4.093c3.878,0,7.474,1.626,10.085,4.237      L425.522,347.487z M421.217,357.436c0-1.695-0.634-3.176-1.694-4.162c-1.13-1.129-2.604-1.763-4.229-1.763      c-1.626,0-3.107,0.634-4.23,1.694c-0.991,1.055-1.694,2.535-1.694,4.23c0,1.625,0.703,3.106,1.694,4.161      c1.123,1.06,2.604,1.763,4.23,1.763c1.625,0,3.1-0.703,4.161-1.763C420.583,360.542,421.217,359.061,421.217,357.436z"/><path d="M424.18,122.377c1.908,1.206,2.611,3.74,1.48,5.719c-0.419,0.633-0.915,1.198-1.48,1.48l-15.239,8.818      c-1.97,1.13-4.512,0.42-5.711-1.551c-1.061-1.977-0.42-4.519,1.551-5.648l8.962-5.215l-8.962-5.153      c-1.971-1.13-2.611-3.665-1.551-5.643c1.199-1.977,3.741-2.679,5.711-1.55L424.18,122.377z"/><path d="M396.313,487.806c2.329,0,4.237,1.832,4.237,4.161c0,2.328-1.908,4.16-4.237,4.16H374.66      c-2.26,0-4.161-1.832-4.161-4.16c0-2.329,1.901-4.161,4.161-4.161H396.313z"/><path d="M381.853,498.952c2.328,0,4.161,1.901,4.161,4.16c0,2.329-1.833,4.162-4.161,4.162h-46.35      c-2.253,0-4.161-1.833-4.161-4.162c0-2.259,1.908-4.16,4.161-4.16H381.853z"/><path d="M343.755,308.618c1.979,1.13,2.619,3.672,1.558,5.643l-6.139,10.582c-1.129,1.977-3.671,2.68-5.642,1.48l-157.39-90.792      c-1.975-1.123-2.68-3.665-1.551-5.711l6.139-10.582c1.198-1.977,3.74-2.61,5.711-1.48L343.755,308.618z M334.098,317.085      l1.901-3.39L185.88,226.996l-1.974,3.458L334.098,317.085z"/><path d="M327.18,251.479c1.979,1.123,2.611,3.665,1.558,5.644l-6.146,10.581c-1.122,1.977-3.664,2.68-5.643,1.55l-83.027-47.831      c-1.978-1.124-2.681-3.734-1.554-5.712l6.138-10.65c1.127-1.977,3.669-2.68,5.646-1.557L327.18,251.479z M317.515,259.939      l1.909-3.382l-75.768-43.739l-1.978,3.458L317.515,259.939z"/><path d="M315.827,82.875v12.346c0,2.26-1.908,4.16-4.236,4.16h-14.743c-2.26,0-4.093-1.9-4.093-4.16V82.875      c0-2.328,1.833-4.161,4.093-4.161h14.743C313.919,78.714,315.827,80.547,315.827,82.875z M307.498,90.99v-3.955h-6.489v3.955      H307.498z"/><path d="M285.983,322.728c1.977,1.13,2.68,3.672,1.55,5.642l-6.063,10.651c-1.206,1.977-3.74,2.687-5.718,1.558l-83.028-47.901      c-1.908-1.198-2.684-3.741-1.481-5.718l6.063-10.65c1.13-1.978,3.672-2.68,5.718-1.551L285.983,322.728z M276.317,331.332      l1.908-3.451l-75.767-43.808l-1.978,3.451L276.317,331.332z"/><path d="M279.913,82.875v12.346c0,2.26-1.901,4.16-4.229,4.16h-40.28c-2.329,0-4.234-1.9-4.234-4.16V82.875      c0-2.328,1.905-4.161,4.234-4.161h40.28C278.012,78.714,279.913,80.547,279.913,82.875z M271.592,90.99v-3.955h-32.028v3.955      H271.592z"/><path d="M269.973,428.828c3.734,3.74,5.993,8.817,5.993,14.46c0,5.642-2.259,10.726-5.993,14.392      c-3.741,3.74-8.821,5.999-14.468,5.999c-5.642,0-10.719-2.259-14.391-5.999c-3.734-3.666-5.994-8.75-5.994-14.392      c0-5.643,2.26-10.72,5.925-14.46c3.741-3.666,8.818-5.994,14.46-5.994C261.151,422.834,266.231,425.087,269.973,428.828z       M267.645,443.288c0-3.383-1.344-6.421-3.527-8.605c-2.19-2.114-5.223-3.526-8.612-3.526c-3.313,0-6.345,1.412-8.535,3.526      c-2.184,2.26-3.527,5.223-3.527,8.605c0,3.313,1.344,6.352,3.527,8.535c2.19,2.115,5.222,3.527,8.535,3.527      c3.39,0,6.422-1.412,8.612-3.527C266.301,449.64,267.645,446.602,267.645,443.288z"/><path d="M218.332,82.875v12.346c0,2.26-1.837,4.16-4.162,4.16h-14.818c-2.328,0-4.161-1.9-4.161-4.16V82.875      c0-2.328,1.833-4.161,4.161-4.161h14.818C216.495,78.714,218.332,80.547,218.332,82.875z M210.006,90.99v-3.955h-6.489v3.955      H210.006z"/><path d="M206.972,13.459c0.564,2.261-0.703,4.514-2.963,5.078l-7.406,2.046c-2.187,0.565-4.516-0.778-5.076-2.962      c-0.638-2.26,0.702-4.513,2.89-5.078l7.478-1.977C204.078,9.933,206.406,11.2,206.972,13.459z"/><path d="M196.603,31.379c0.565,2.26-0.705,4.512-2.962,5.146c-2.188,0.565-4.516-0.702-5.08-2.962l-1.975-7.262      c-0.564-2.189,0.775-4.52,2.963-5.084c2.256-0.564,4.512,0.71,5.077,2.963L196.603,31.379z"/><path d="M190.889,10.07c0.564,2.26-0.775,4.52-2.963,5.084c-2.256,0.635-4.516-0.709-5.08-2.894l-1.833-6.985      c-0.634-2.26,0.703-4.512,2.894-5.146c2.257-0.564,4.513,0.772,5.146,2.963L190.889,10.07z"/><path d="M186.235,19.033c0.561,2.184-0.71,4.512-2.966,5.078l-7.548,2.045c-2.259,0.565-4.516-0.778-5.08-2.963      c-0.634-2.183,0.706-4.512,2.894-5.076l7.615-2.047C183.342,15.506,185.598,16.773,186.235,19.033z"/><path d="M129.162,493.165c1.974,1.978,3.172,4.726,3.172,7.757c0,3.038-1.198,5.856-3.172,7.833      c-2.046,1.978-4.799,3.245-7.83,3.245c-3.034,0-5.787-1.268-7.833-3.245c-1.974-1.977-3.173-4.795-3.173-7.833      c0-3.031,1.199-5.779,3.173-7.757c2.046-2.046,4.799-3.244,7.833-3.244C124.363,489.921,127.116,491.119,129.162,493.165z       M124.081,500.922c0-0.703-0.352-1.411-0.848-1.901c-0.488-0.496-1.126-0.778-1.901-0.778c-0.706,0-1.412,0.282-1.908,0.778      c-0.489,0.49-0.771,1.198-0.771,1.901c0,0.779,0.282,1.481,0.771,1.908c0.496,0.489,1.202,0.848,1.908,0.848      c0.775,0,1.413-0.358,1.901-0.848C123.729,502.403,124.081,501.701,124.081,500.922z"/><polygon points="106.307,267.139 108.563,274.613 100.589,277.019 98.333,269.536     "/><polygon points="100.589,277.019 102.849,284.492 94.878,286.89 92.69,279.415     "/><polygon points="96.146,262.063 98.333,269.536 90.435,271.934 88.175,264.46     "/><polygon points="90.362,271.934 92.618,279.415 84.717,281.813 82.46,274.331     "/></g></g></g></g></svg>